<svg id="Layer_1" data-name="Layer 1" xmlns="http://www.w3.org/2000/svg" viewBox="0 0 95.939 17.478"><title>logo</title><path d="M7.758,2.844a5.914,5.914,0,0,1,3.294.9A5.338,5.338,0,0,1,13.1,6.264l-2.52,1.494A3.817,3.817,0,0,0,9.4,6.228a2.986,2.986,0,0,0-1.827-.54,3.614,3.614,0,0,0-1.4.27A3.417,3.417,0,0,0,5.058,6.7a3.283,3.283,0,0,0-.729,1.125,3.842,3.842,0,0,0-.261,1.431,3.541,3.541,0,0,0,.216,1.269,2.641,2.641,0,0,0,.621.963,2.811,2.811,0,0,0,.963.612,3.415,3.415,0,0,0,1.242.216A3.363,3.363,0,0,0,8.9,11.844,4.937,4.937,0,0,0,10.3,10.512l2.178,1.71a6.6,6.6,0,0,1-2.4,2.169,6.737,6.737,0,0,1-3.195.765,6.533,6.533,0,0,1-2.412-.432,5.677,5.677,0,0,1-1.89-1.2A5.371,5.371,0,0,1,1.341,11.7,5.948,5.948,0,0,1,.9,9.4a6.208,6.208,0,0,1,.54-2.583A6.565,6.565,0,0,1,2.907,4.734,6.822,6.822,0,0,1,5.085,3.348,7.085,7.085,0,0,1,7.758,2.844Z" transform="translate(-0.9 -0.918)" fill="#231f20"/><path d="M15.93,14.94h-3.1L15.21,1.44h3.1Z" transform="translate(-0.9 -0.918)" fill="#231f20"/><path d="M20.862,14.94h-3.1l1.548-8.82h3.1ZM21.474.918a1.882,1.882,0,0,1,.738.144,2.036,2.036,0,0,1,.6.387,1.812,1.812,0,0,1,.414.576,1.725,1.725,0,0,1,.153.729,1.683,1.683,0,0,1-.153.711,1.812,1.812,0,0,1-.414.576,2.036,2.036,0,0,1-.6.387,1.963,1.963,0,0,1-1.476,0,2.036,2.036,0,0,1-.6-.387,1.7,1.7,0,0,1-.4-.576,1.772,1.772,0,0,1-.144-.711,1.737,1.737,0,0,1,.549-1.314A1.873,1.873,0,0,1,21.474.918Z" transform="translate(-0.9 -0.918)" fill="#231f20"/><path d="M28.062,5.9a4.41,4.41,0,0,1,1.71.315,3.834,3.834,0,0,1,1.278.846,3.677,3.677,0,0,1,.8,1.233,3.96,3.96,0,0,1,.279,1.476,4.429,4.429,0,0,1-.108.981,5.591,5.591,0,0,1-.252.837H26.082a1.519,1.519,0,0,0,.72.765,2.728,2.728,0,0,0,1.224.243,4.259,4.259,0,0,0,1.242-.18,5.838,5.838,0,0,0,1.17-.5l.99,2.052a6.317,6.317,0,0,1-3.672,1.188,5.579,5.579,0,0,1-1.953-.324,4.461,4.461,0,0,1-1.5-.909,4.036,4.036,0,0,1-.972-1.377,4.312,4.312,0,0,1-.342-1.728,4.776,4.776,0,0,1,1.485-3.483,5.324,5.324,0,0,1,1.611-1.044A5.044,5.044,0,0,1,28.062,5.9ZM27.81,8.3a1.716,1.716,0,0,0-1.053.342,1.967,1.967,0,0,0-.675.972h3.132a1.239,1.239,0,0,0-.432-.972A1.481,1.481,0,0,0,27.81,8.3Z" transform="translate(-0.9 -0.918)" fill="#231f20"/><path d="M39.33,5.9a3.439,3.439,0,0,1,1.233.216,2.82,2.82,0,0,1,.981.621,2.77,2.77,0,0,1,.639.972,3.363,3.363,0,0,1,.225,1.251A5.854,5.854,0,0,1,42.3,9.99l-.864,4.95h-3.1l.81-4.644a3.146,3.146,0,0,0,.072-.594,1.058,1.058,0,0,0-.351-.855A1.3,1.3,0,0,0,38,8.55a1.386,1.386,0,0,0-.882.3,1.432,1.432,0,0,0-.486.927l-.9,5.166h-3.1l1.548-8.82h2.826l-.144.738a4.136,4.136,0,0,1,1.08-.684A3.4,3.4,0,0,1,39.33,5.9Z" transform="translate(-0.9 -0.918)" fill="#231f20"/><path d="M50.094,8.676H47.646l-.45,2.466q-.018.108-.027.2t-.009.18a.774.774,0,0,0,.459.792,3.464,3.464,0,0,0,1.323.2h.72l-.45,2.556c-.18.024-.358.045-.531.063a6.143,6.143,0,0,1-.621.027,8.376,8.376,0,0,1-1.359-.117,4.09,4.09,0,0,1-1.3-.441,2.708,2.708,0,0,1-.981-.918,2.792,2.792,0,0,1-.387-1.548,4.008,4.008,0,0,1,.027-.477q.027-.225.063-.477l.432-2.5H43.218l.45-2.556h1.35l.414-2.34h3.1L48.1,6.12h2.448Z" transform="translate(-0.9 -0.918)" fill="#231f20"/><path d="M59.633,12.15h4.914l-.485,2.79H56.051L58.139,3.06h3.1Z" transform="translate(-0.9 -0.918)" fill="#231f20"/><path d="M70.505,5.9a4.984,4.984,0,0,1,1.854.342,4.641,4.641,0,0,1,1.494.936A4.337,4.337,0,0,1,75.2,10.35a4.369,4.369,0,0,1-.423,1.908,4.925,4.925,0,0,1-1.135,1.53A5.175,5.175,0,0,1,72,14.8a5.477,5.477,0,0,1-1.981.36,4.962,4.962,0,0,1-1.862-.342,4.552,4.552,0,0,1-1.477-.936,4.27,4.27,0,0,1-.972-1.4,4.343,4.343,0,0,1-.351-1.746,4.448,4.448,0,0,1,.414-1.908A4.819,4.819,0,0,1,66.9,7.29,5.383,5.383,0,0,1,70.505,5.9Zm-.126,2.772a1.712,1.712,0,0,0-1.314.567,2.081,2.081,0,0,0-.54,1.413,1.668,1.668,0,0,0,.441,1.26,1.581,1.581,0,0,0,1.179.468,1.808,1.808,0,0,0,1.332-.54,1.943,1.943,0,0,0,.559-1.386,1.72,1.72,0,0,0-.459-1.3A1.612,1.612,0,0,0,70.379,8.676Z" transform="translate(-0.9 -0.918)" fill="#231f20"/><path d="M80.891,5.886a3.69,3.69,0,0,1,1.53.279,2.665,2.665,0,0,1,.991.747l.143-.792h3.1l-1.423,8.172a5.414,5.414,0,0,1-.675,1.863,4.339,4.339,0,0,1-1.161,1.278,4.76,4.76,0,0,1-1.52.729,6.434,6.434,0,0,1-1.738.234,7.164,7.164,0,0,1-2.421-.441A6.008,6.008,0,0,1,75.4,16.38l1.8-2.07a6.9,6.9,0,0,0,1.439.981,3.367,3.367,0,0,0,1.494.333,2.618,2.618,0,0,0,1.323-.324,1.438,1.438,0,0,0,.694-1.08l.054-.306a3.645,3.645,0,0,1-2.143.63,4.34,4.34,0,0,1-1.61-.288,3.937,3.937,0,0,1-1.26-.783,3.345,3.345,0,0,1-.819-1.188,3.86,3.86,0,0,1-.289-1.5,5.259,5.259,0,0,1,.28-1.62,4.945,4.945,0,0,1,.863-1.593,4.682,4.682,0,0,1,1.494-1.206A4.614,4.614,0,0,1,80.891,5.886Zm.271,2.592a1.737,1.737,0,0,0-.756.162,1.933,1.933,0,0,0-.595.432,2.01,2.01,0,0,0-.4.621,1.885,1.885,0,0,0-.145.729,1.648,1.648,0,0,0,.441,1.161,1.553,1.553,0,0,0,1.2.477,1.956,1.956,0,0,0,.747-.144,1.756,1.756,0,0,0,.6-.405,2.152,2.152,0,0,0,.406-.594,1.7,1.7,0,0,0,.153-.711,1.681,1.681,0,0,0-.442-1.233A1.575,1.575,0,0,0,81.162,8.478Z" transform="translate(-0.9 -0.918)" fill="#231f20"/><path d="M92.141,5.9A4.991,4.991,0,0,1,94,6.246a4.641,4.641,0,0,1,1.494.936,4.331,4.331,0,0,1,1.35,3.168,4.368,4.368,0,0,1-.422,1.908,4.957,4.957,0,0,1-1.135,1.53A5.179,5.179,0,0,1,93.635,14.8a5.468,5.468,0,0,1-1.98.36,4.971,4.971,0,0,1-1.863-.342,4.558,4.558,0,0,1-1.476-.936,4.27,4.27,0,0,1-.972-1.4,4.343,4.343,0,0,1-.351-1.746,4.434,4.434,0,0,1,.414-1.908,4.819,4.819,0,0,1,1.125-1.53A5.383,5.383,0,0,1,92.141,5.9Zm-.126,2.772a1.71,1.71,0,0,0-1.314.567,2.076,2.076,0,0,0-.54,1.413,1.664,1.664,0,0,0,.441,1.26,1.58,1.58,0,0,0,1.179.468,1.81,1.81,0,0,0,1.332-.54,1.938,1.938,0,0,0,.558-1.386,1.712,1.712,0,0,0-.459-1.3A1.608,1.608,0,0,0,92.015,8.676Z" transform="translate(-0.9 -0.918)" fill="#231f20"/></svg>